<?xml version="1.0" encoding="utf-8"?>
<!-- Generator: Adobe Illustrator 19.2.0, SVG Export Plug-In . SVG Version: 6.00 Build 0)  -->
<svg version="1.1" id="Layer_1" xmlns="http://www.w3.org/2000/svg" xmlns:xlink="http://www.w3.org/1999/xlink" x="0px" y="0px"
	 viewBox="0 0 184 82" style="enable-background:new 0 0 184 82;" xml:space="preserve">
<style type="text/css">
	.st0{display:none;}
	.st1{fill:url(#SVGID_1_);}
	.st2{fill:url(#XMLID_4_);}
	.st3{fill:url(#XMLID_5_);}
	.st4{fill:url(#XMLID_6_);}
	.st5{fill:url(#XMLID_7_);}
	.st6{fill:url(#XMLID_8_);}
	.st7{fill:url(#XMLID_9_);}
	.st8{fill:url(#XMLID_10_);}
	.st9{fill:url(#XMLID_11_);}
	.st10{fill:url(#XMLID_12_);}
	.st11{fill:url(#XMLID_13_);}
	.st12{fill:url(#XMLID_14_);}
	.st13{display:inline;}
	.st14{fill:#353535;}
	.st15{display:inline;fill:none;}
	.st16{fill:url(#XMLID_15_);}
	.st17{fill:url(#XMLID_16_);}
	.st18{fill:url(#XMLID_17_);}
	.st19{fill:url(#XMLID_18_);}
	.st20{fill:url(#XMLID_19_);}
	.st21{fill:url(#XMLID_21_);}
	.st22{fill:url(#XMLID_24_);}
	.st23{fill:url(#XMLID_25_);}
</style>
<g id="Layer_3" class="st0">
</g>
<g id="Layer_5">
	<g id="Layer_7">
		<g id="Layer_6_copy">
			<g id="XMLID_132_">
				<g id="XMLID_157_">
					<linearGradient id="SVGID_1_" gradientUnits="userSpaceOnUse" x1="73.3777" y1="41" x2="110.578" y2="41">
						<stop  offset="0" style="stop-color:#F15F79"/>
						<stop  offset="1" style="stop-color:#B24592"/>
					</linearGradient>
					<path class="st1" d="M92,24.4c2.6,0,5.2,0.6,7.7,1.9c8.1,4.2,11.2,14.3,7,22.4c-2.9,5.6-8.7,8.9-14.7,8.9
						c-2.6,0-5.2-0.6-7.7-1.9c-8.1-4.2-11.3-14.3-7-22.4C80.2,27.7,86,24.4,92,24.4 M92,22.4L92,22.4c-7,0-13.3,3.8-16.5,10
						c-2.3,4.4-2.8,9.4-1.3,14.1c1.5,4.8,4.7,8.7,9.1,10.9c2.6,1.4,5.6,2.1,8.6,2.1c7,0,13.3-3.8,16.5-10c2.3-4.4,2.7-9.4,1.2-14.2
						c-1.5-4.8-4.7-8.6-9.1-10.9C98,23.1,95,22.4,92,22.4L92,22.4z"/>
				</g>
				
					<linearGradient id="XMLID_4_" gradientUnits="userSpaceOnUse" x1="88.9252" y1="1037" x2="95.0751" y2="1037" gradientTransform="matrix(1 0 0 1 0 -996)">
					<stop  offset="0" style="stop-color:#F15F79"/>
					<stop  offset="1" style="stop-color:#B24592"/>
				</linearGradient>
				<path id="XMLID_88_" class="st2" d="M94.7,42.4c-0.8,1.5-2.6,2.1-4.1,1.3s-2.1-2.6-1.3-4.1c0.8-1.5,2.6-2.1,4.2-1.3
					C94.9,39.1,95.5,40.9,94.7,42.4z"/>
				
					<linearGradient id="XMLID_5_" gradientUnits="userSpaceOnUse" x1="89.108" y1="1041.35" x2="90.3358" y2="1041.35" gradientTransform="matrix(1 0 0 1 0 -996)">
					<stop  offset="0" style="stop-color:#F15F79"/>
					<stop  offset="1" style="stop-color:#B24592"/>
				</linearGradient>
				<path id="XMLID_71_" class="st3" d="M90.3,45.6c-0.1,0.3-0.5,0.4-0.8,0.3c-0.3-0.2-0.4-0.5-0.3-0.8c0.2-0.3,0.5-0.4,0.8-0.3
					C90.3,45,90.4,45.3,90.3,45.6z"/>
				
					<linearGradient id="XMLID_6_" gradientUnits="userSpaceOnUse" x1="90.685" y1="1032.15" x2="91.9128" y2="1032.15" gradientTransform="matrix(1 0 0 1 0 -996)">
					<stop  offset="0" style="stop-color:#F15F79"/>
					<stop  offset="1" style="stop-color:#B24592"/>
				</linearGradient>
				<path id="XMLID_32_" class="st4" d="M91.8,36.4c-0.1,0.3-0.5,0.4-0.8,0.3c-0.3-0.2-0.4-0.5-0.3-0.8c0.2-0.3,0.5-0.4,0.8-0.3
					C91.9,35.7,92,36.1,91.8,36.4z"/>
				
					<linearGradient id="XMLID_7_" gradientUnits="userSpaceOnUse" x1="94.8625" y1="1040.55" x2="96.0945" y2="1040.55" gradientTransform="matrix(1 0 0 1 0 -996)">
					<stop  offset="0" style="stop-color:#F15F79"/>
					<stop  offset="1" style="stop-color:#B24592"/>
				</linearGradient>
				<path id="XMLID_23_" class="st5" d="M96,44.8c-0.2,0.3-0.5,0.4-0.8,0.3c-0.3-0.2-0.4-0.5-0.3-0.8c0.2-0.3,0.5-0.4,0.8-0.3
					C96.1,44.1,96.2,44.5,96,44.8z"/>
				
					<linearGradient id="XMLID_8_" gradientUnits="userSpaceOnUse" x1="86.5209" y1="1036.15" x2="87.7487" y2="1036.15" gradientTransform="matrix(1 0 0 1 0 -996)">
					<stop  offset="0" style="stop-color:#F15F79"/>
					<stop  offset="1" style="stop-color:#B24592"/>
				</linearGradient>
				<path id="XMLID_22_" class="st6" d="M87.7,40.4c-0.1,0.3-0.5,0.4-0.8,0.3c-0.3-0.2-0.4-0.5-0.3-0.8c0.2-0.3,0.5-0.4,0.8-0.3
					C87.7,39.8,87.8,40.1,87.7,40.4z"/>
				
					<linearGradient id="XMLID_9_" gradientUnits="userSpaceOnUse" x1="95.8471" y1="1034.85" x2="97.0794" y2="1034.85" gradientTransform="matrix(1 0 0 1 0 -996)">
					<stop  offset="0" style="stop-color:#F15F79"/>
					<stop  offset="1" style="stop-color:#B24592"/>
				</linearGradient>
				<path id="XMLID_20_" class="st7" d="M97,39.1c-0.2,0.3-0.5,0.4-0.8,0.3c-0.3-0.2-0.4-0.5-0.3-0.8c0.2-0.3,0.5-0.4,0.8-0.3
					C97.1,38.4,97.2,38.8,97,39.1z"/>
				
					<linearGradient id="XMLID_10_" gradientUnits="userSpaceOnUse" x1="91.9917" y1="1028.1932" x2="101.2059" y2="1028.1932" gradientTransform="matrix(1 0 0 1 0 -996)">
					<stop  offset="0" style="stop-color:#F15F79"/>
					<stop  offset="1" style="stop-color:#B24592"/>
				</linearGradient>
				<path id="XMLID_148_" class="st8" d="M98.7,28.1c-1.6-0.9-3.5-0.6-4.9,0.4c-0.5,0.4-1,0.9-1.3,1.6c-0.1,0.2-0.2,0.3-0.2,0.5l0,0
					c-0.8,2.2,0.1,4.6,2.2,5.7s4.6,0.4,5.9-1.5l0,0c0.1-0.1,0.2-0.3,0.3-0.4c0.3-0.6,0.5-1.3,0.5-2C101.3,30.6,100.4,29,98.7,28.1z
					 M99.6,33.8c-0.1,0.1-0.2,0.3-0.3,0.4c-0.8-0.8-1.7-1.5-2.7-2.1c-1-0.6-2.1-0.9-3.2-1c0.1-0.2,0.1-0.3,0.2-0.5
					c0.5-0.9,1.3-1.5,2.1-1.7l0,0c1.5,0.5,2.8,1.2,4,2.1C100.1,31.9,100.1,32.9,99.6,33.8z"/>
				
					<linearGradient id="XMLID_11_" gradientUnits="userSpaceOnUse" x1="97.2932" y1="1039.031" x2="106.5205" y2="1039.031" gradientTransform="matrix(1 0 0 1 0 -996)">
					<stop  offset="0" style="stop-color:#F15F79"/>
					<stop  offset="1" style="stop-color:#B24592"/>
				</linearGradient>
				<path id="XMLID_145_" class="st9" d="M104.5,39.3c-0.1-0.1-0.3-0.2-0.5-0.3c-2.3-1.2-5-0.3-6.2,1.9c-1.2,2.3-0.3,5,1.9,6.2
					c1,0.5,2,0.6,3,0.4c1.3-0.3,2.5-1.1,3.2-2.4C107.1,43.1,106.4,40.6,104.5,39.3z M103.6,46c-0.9,0.5-2.1,0.6-3.1,0.2
					c0.1-0.2,0.2-0.3,0.3-0.5c1-1.9,1.3-4,1-5.9c0.5,0,1.1,0.1,1.6,0.4c0.5,0.2,0.9,0.6,1.2,1C104.6,42.8,104.3,44.4,103.6,46z"/>
				
					<linearGradient id="XMLID_12_" gradientUnits="userSpaceOnUse" x1="80.0618" y1="1030.0227" x2="89.2878" y2="1030.0227" gradientTransform="matrix(1 0 0 1 0 -996)">
					<stop  offset="0" style="stop-color:#F15F79"/>
					<stop  offset="1" style="stop-color:#B24592"/>
				</linearGradient>
				<path id="XMLID_142_" class="st10" d="M86.8,29.9c-0.2-0.1-0.3-0.2-0.5-0.2c-2.1-0.8-4.6,0.1-5.7,2.2c-0.7,1.3-0.7,2.7-0.1,4
					c0.4,0.9,1.1,1.7,2.1,2.2c2.3,1.2,5,0.3,6.2-1.9C89.9,33.9,89.1,31.1,86.8,29.9z M83.2,36.4c-0.1,0.2-0.2,0.3-0.3,0.5
					c-0.9-0.6-1.5-1.6-1.6-2.6c0.9-1.4,2.1-2.6,3.4-3.6c0.5,0,1,0.1,1.5,0.4s0.9,0.6,1.2,1.1C85.7,33,84.1,34.5,83.2,36.4z"/>
				
					<linearGradient id="XMLID_13_" gradientUnits="userSpaceOnUse" x1="77.9653" y1="1041.7396" x2="87.188" y2="1041.7396" gradientTransform="matrix(1 0 0 1 0 -996)">
					<stop  offset="0" style="stop-color:#F15F79"/>
					<stop  offset="1" style="stop-color:#B24592"/>
				</linearGradient>
				<path id="XMLID_139_" class="st11" d="M84.7,41.7c-1.8-0.9-3.9-0.6-5.3,0.7c-0.4,0.4-0.7,0.8-0.9,1.2c-1.2,2.3-0.3,5,1.9,6.2
					c0.9,0.5,2,0.6,3,0.4c1.3-0.2,2.6-1.1,3.2-2.4C87.8,45.6,87,42.8,84.7,41.7z M82.3,49.1c-1.2-1.5-2.1-3.2-2.6-5.1
					c0.5-0.9,1.4-1.4,2.4-1.6c0.3,2.1,1.3,4.2,2.9,5.7C84.3,48.8,83.3,49.2,82.3,49.1z"/>
				
					<linearGradient id="XMLID_14_" gradientUnits="userSpaceOnUse" x1="88.9086" y1="1047.5013" x2="98.1289" y2="1047.5013" gradientTransform="matrix(1 0 0 1 0 -996)">
					<stop  offset="0" style="stop-color:#F15F79"/>
					<stop  offset="1" style="stop-color:#B24592"/>
				</linearGradient>
				<path id="XMLID_136_" class="st12" d="M95.6,47.4c-2.3-1.2-5-0.3-6.2,2c-0.7,1.3-0.7,2.8-0.1,4c0.4,0.9,1.1,1.7,2.1,2.2
					c2.3,1.2,5,0.3,6.2-1.9c0.3-0.5,0.4-1,0.5-1.5C98.3,50.2,97.4,48.3,95.6,47.4z M96.6,52.8c-1.4,0.6-3,0.9-4.6,0.9
					c-0.4,0-0.8,0-1.1,0c-0.6-0.8-0.9-1.8-0.7-2.8c2.2,0.4,4.4,0,6.3-0.9C97,50.8,97,51.8,96.6,52.8z"/>
			</g>
		</g>
	</g>
</g>
<g id="Layer_6" class="st0">
	<g id="XMLID_1_" class="st13">
		<path id="XMLID_38_" class="st14" d="M57-18.9h53.6c2.1,0,3.7-1.7,3.7-3.7v-14.7c0-2.1-1.7-3.7-3.7-3.7H57c-2.1,0-3.7,1.7-3.7,3.7
			v14.7C53.3-20.6,54.9-18.9,57-18.9z M110.1-25.4H98.3v-2.4h11.8C110.1-27.8,110.1-25.4,110.1-25.4z M93.8-34.5h16.3v2.4H93.8
			V-34.5z M76.6-33.8c2.1-4,7-5.6,11-3.5s5.6,7,3.5,11s-7,5.6-11,3.5C76-24.8,74.5-29.8,76.6-33.8z M57.6-34.5h16.3v2.4H57.6V-34.5z
			 M57.6-27.8h11.8v2.4H57.6V-27.8z"/>
		<circle id="XMLID_43_" class="st14" cx="83.8" cy="-30" r="1.5"/>
		<circle id="XMLID_44_" class="st14" cx="82.7" cy="-27.8" r="0.3"/>
		<circle id="XMLID_45_" class="st14" cx="83.5" cy="-32.4" r="0.3"/>
		<circle id="XMLID_46_" class="st14" cx="85.5" cy="-28.2" r="0.3"/>
		<circle id="XMLID_47_" class="st14" cx="81.4" cy="-30.4" r="0.3"/>
		<circle id="XMLID_48_" class="st14" cx="86" cy="-31.1" r="0.3"/>
		<path id="XMLID_51_" class="st14" d="M85-32.3c1,0.5,2.3,0.2,2.9-0.7l0,0c0-0.1,0.1-0.1,0.1-0.2c0.2-0.3,0.2-0.6,0.3-1
			c0-0.8-0.4-1.7-1.2-2.1c-0.8-0.4-1.7-0.3-2.4,0.2c-0.3,0.2-0.5,0.5-0.7,0.8c0,0.1-0.1,0.2-0.1,0.2l0,0C83.6-34.1,84-32.8,85-32.3z
			 M84.6-35.1c0.2-0.4,0.6-0.7,1.1-0.8l0,0c0.7,0.2,1.4,0.6,2,1c0.2,0.4,0.1,0.9-0.1,1.3c0,0.1-0.1,0.1-0.1,0.2
			c-0.4-0.4-0.8-0.7-1.3-1s-1.1-0.4-1.6-0.5C84.5-34.9,84.6-35,84.6-35.1z"/>
		<path id="XMLID_54_" class="st14" d="M86.7-30c-0.6,1.1-0.2,2.5,1,3.1c0.5,0.2,1,0.3,1.5,0.2c0.7-0.1,1.2-0.5,1.6-1.2
			c0.5-1,0.2-2.3-0.7-2.9c-0.1-0.1-0.2-0.1-0.2-0.1C88.6-31.6,87.3-31.1,86.7-30z M88.2-27.7c0.5-0.9,0.6-2,0.5-2.9
			c0.3,0,0.5,0.1,0.8,0.2c0.2,0.1,0.4,0.3,0.6,0.5c0,0.9-0.2,1.7-0.5,2.4c-0.4,0.3-1,0.3-1.5,0.1C88.1-27.5,88.1-27.6,88.2-27.7z"/>
		<path id="XMLID_57_" class="st14" d="M79.1-31.4c1.1,0.6,2.5,0.1,3.1-1s0.1-2.5-1-3.1c-0.1,0-0.2-0.1-0.2-0.1
			c-1.1-0.4-2.3,0-2.8,1.1c-0.3,0.6-0.3,1.4-0.1,2C78.3-32,78.7-31.6,79.1-31.4z M80.2-35.1c0.2,0,0.5,0.1,0.7,0.2
			c0.2,0.1,0.4,0.3,0.6,0.5c-0.9,0.5-1.6,1.2-2.1,2.1c0,0.1-0.1,0.2-0.1,0.3c-0.5-0.3-0.8-0.8-0.8-1.3C79-34,79.6-34.6,80.2-35.1z"
			/>
		<path id="XMLID_60_" class="st14" d="M79.6-25.4c0.7-0.1,1.3-0.5,1.6-1.2c0.6-1.1,0.2-2.5-1-3.1c-0.9-0.5-1.9-0.3-2.6,0.4
			c-0.2,0.2-0.3,0.4-0.5,0.6c-0.6,1.1-0.1,2.5,1,3.1C78.6-25.4,79.1-25.3,79.6-25.4z M78.9-29.3c0.2,1.1,0.6,2.1,1.4,2.8
			C80-26.1,79.5-25.9,79-26c-0.6-0.7-1.1-1.6-1.3-2.5C78-28.9,78.5-29.2,78.9-29.3z"/>
		<path id="XMLID_63_" class="st14" d="M85.6-26.8c-1.1-0.6-2.5-0.1-3.1,1c-0.3,0.6-0.3,1.4-0.1,2c0.2,0.5,0.5,0.8,1,1.1
			c1.1,0.6,2.5,0.2,3.1-1c0.1-0.2,0.2-0.5,0.2-0.7C86.9-25.4,86.5-26.4,85.6-26.8z M86.1-24.2c-0.7,0.3-1.5,0.4-2.3,0.4
			c-0.2,0-0.4,0-0.5,0c-0.3-0.4-0.4-0.9-0.3-1.4c1.1,0.2,2.2,0,3.1-0.5C86.3-25.1,86.3-24.6,86.1-24.2z"/>
		<path id="XMLID_66_" class="st14" d="M121.8-44v-2h-76v2c1.1,0.8,1.9,2.2,1.9,3.7s-0.7,2.9-1.9,3.7v2.9c1.1,0.8,1.9,2.2,1.9,3.7
			s-0.7,2.9-1.9,3.7v2.9c1.1,0.8,1.9,2.2,1.9,3.7S47-16.8,45.8-16v2h76v-2c-1.1-0.8-1.9-2.2-1.9-3.7s0.7-2.9,1.9-3.7v-2.9
			c-1.1-0.8-1.9-2.2-1.9-3.7s0.7-2.9,1.9-3.7v-2.9c-1.1-0.8-1.9-2.2-1.9-3.7S120.7-43.1,121.8-44z M116.5-16.6H51.2v-26.8h65.3
			V-16.6z"/>
	</g>
</g>
<g id="Layer_8" class="st0">
	<polyline id="XMLID_218_" class="st15" points="15.4,0.9 18.3,0.9 36.2,0.9 36.9,0.9 	"/>
	<g id="XMLID_122_" class="st13">
		
			<linearGradient id="XMLID_15_" gradientUnits="userSpaceOnUse" x1="51" y1="1036.95" x2="133" y2="1036.95" gradientTransform="matrix(1 0 0 1 0 -996)">
			<stop  offset="0" style="stop-color:#FF9068"/>
			<stop  offset="1" style="stop-color:#FD746C"/>
		</linearGradient>
		<path id="XMLID_175_" class="st16" d="M132,16.5H52c-0.6,0-1,0.5-1,1v46.9c0,0.6,0.5,1,1,1h80c0.6,0,1-0.5,1-1V17.5
			C133,17,132.5,16.5,132,16.5z M116,21.9c0-0.6,0.5-1,1-1h1.6c0.6,0,1,0.5,1,1v4.7c0,0.6-0.5,1-1,1H117c-0.6,0-1-0.5-1-1V21.9z
			 M108.6,21.9c0-0.6,0.5-1,1-1h1.6c0.6,0,1,0.5,1,1v4.7c0,0.6-0.5,1-1,1h-1.6c-0.6,0-1-0.5-1-1V21.9z M101.2,21.9c0-0.6,0.5-1,1-1
			h1.6c0.6,0,1,0.5,1,1v4.7c0,0.6-0.5,1-1,1h-1.6c-0.6,0-1-0.5-1-1V21.9z M93.8,21.9c0-0.6,0.5-1,1-1h1.6c0.6,0,1,0.5,1,1v4.7
			c0,0.6-0.5,1-1,1h-1.6c-0.6,0-1-0.5-1-1V21.9z M86.5,21.9c0-0.6,0.5-1,1-1h1.6c0.6,0,1,0.5,1,1v4.7c0,0.6-0.5,1-1,1h-1.6
			c-0.6,0-1-0.5-1-1V21.9z M79.1,21.9c0-0.6,0.5-1,1-1h1.6c0.6,0,1,0.5,1,1v4.7c0,0.6-0.5,1-1,1h-1.6c-0.6,0-1-0.5-1-1V21.9z
			 M71.7,21.9c0-0.6,0.5-1,1-1h1.6c0.6,0,1,0.5,1,1v4.7c0,0.6-0.5,1-1,1h-1.6c-0.6,0-1-0.5-1-1V21.9z M64.3,21.9c0-0.6,0.5-1,1-1H67
			c0.6,0,1,0.5,1,1v4.7c0,0.6-0.5,1-1,1h-1.6c-0.6,0-1-0.5-1-1L64.3,21.9L64.3,21.9z M56,21.9c0-0.6,0.5-1,1-1h1.6c0.6,0,1,0.5,1,1
			v4.7c0,0.6-0.5,1-1,1H57c-0.6,0-1-0.5-1-1V21.9z M59.7,60.1c0,0.6-0.5,1-1,1H57c-0.6,0-1-0.5-1-1v-4.7c0-0.6,0.5-1,1-1h1.6
			c0.6,0,1,0.5,1,1v4.7H59.7z M68,60.1c0,0.6-0.5,1-1,1h-1.6c-0.6,0-1-0.5-1-1v-4.7c0-0.6,0.5-1,1-1H67c0.6,0,1,0.5,1,1V60.1z
			 M75.4,60.1c0,0.6-0.5,1-1,1h-1.6c-0.6,0-1-0.5-1-1v-4.7c0-0.6,0.5-1,1-1h1.6c0.6,0,1,0.5,1,1V60.1z M82.8,60.1c0,0.6-0.5,1-1,1
			h-1.6c-0.6,0-1-0.5-1-1v-4.7c0-0.6,0.5-1,1-1h1.6c0.6,0,1,0.5,1,1V60.1z M90.2,60.1c0,0.6-0.5,1-1,1h-1.6c-0.6,0-1-0.5-1-1v-4.7
			c0-0.6,0.5-1,1-1h1.6c0.6,0,1,0.5,1,1V60.1z M97.5,60.1c0,0.6-0.5,1-1,1h-1.6c-0.6,0-1-0.5-1-1v-4.7c0-0.6,0.5-1,1-1h1.6
			c0.6,0,1,0.5,1,1V60.1z M104.9,60.1c0,0.6-0.5,1-1,1h-1.6c-0.6,0-1-0.5-1-1v-4.7c0-0.6,0.5-1,1-1h1.6c0.6,0,1,0.5,1,1V60.1z
			 M112.3,60.1c0,0.6-0.5,1-1,1h-1.6c-0.6,0-1-0.5-1-1v-4.7c0-0.6,0.5-1,1-1h1.6c0.6,0,1,0.5,1,1V60.1z M119.7,60.1c0,0.6-0.5,1-1,1
			H117c-0.6,0-1-0.5-1-1v-4.7c0-0.6,0.5-1,1-1h1.6c0.6,0,1,0.5,1,1L119.7,60.1L119.7,60.1z M128,60.1c0,0.6-0.5,1-1,1h-1.6
			c-0.6,0-1-0.5-1-1v-4.7c0-0.6,0.5-1,1-1h1.6c0.6,0,1,0.5,1,1V60.1z M128,49.6c0,0.6-0.5,1-1,1H57c-0.6,0-1-0.5-1-1V32.4
			c0-0.6,0.5-1,1-1h70c0.6,0,1,0.5,1,1V49.6z M128,26.6c0,0.6-0.5,1-1,1h-1.6c-0.6,0-1-0.5-1-1v-4.7c0-0.6,0.5-1,1-1h1.6
			c0.6,0,1,0.5,1,1V26.6z"/>
		
			<linearGradient id="XMLID_16_" gradientUnits="userSpaceOnUse" x1="58.32" y1="1037.05" x2="65.97" y2="1037.05" gradientTransform="matrix(1 0 0 1 0 -996)">
			<stop  offset="0" style="stop-color:#FF9068"/>
			<stop  offset="1" style="stop-color:#FD746C"/>
		</linearGradient>
		<path id="XMLID_236_" class="st17" d="M65,37.1c-0.3-0.3-0.7-0.5-1.2-0.7c-0.5-0.2-1-0.2-1.6-0.2h-4v9.7h2.1V43h1.6
			c0.5,0,1-0.1,1.5-0.2c0.5-0.1,0.9-0.4,1.2-0.6c0.4-0.3,0.6-0.6,0.8-1.1c0.2-0.4,0.3-0.9,0.3-1.5l0,0c0-0.5-0.1-1-0.3-1.4
			C65.5,37.7,65.3,37.4,65,37.1z M63.8,39.6c0,0.4-0.2,0.8-0.4,1c-0.3,0.3-0.7,0.4-1.3,0.4h-1.7v-3H62c0.5,0,1,0.1,1.3,0.4
			C63.7,38.7,63.8,39.1,63.8,39.6L63.8,39.6z"/>
		
			<linearGradient id="XMLID_17_" gradientUnits="userSpaceOnUse" x1="67.55" y1="1037" x2="74.49" y2="1037" gradientTransform="matrix(1 0 0 1 0 -996)">
			<stop  offset="0" style="stop-color:#FF9068"/>
			<stop  offset="1" style="stop-color:#FD746C"/>
		</linearGradient>
		<polygon id="XMLID_237_" class="st18" points="69.7,36.2 67.5,36.2 67.5,45.8 74.5,45.8 74.5,43.9 69.7,43.9 		"/>
		
			<linearGradient id="XMLID_18_" gradientUnits="userSpaceOnUse" x1="76.09" y1="1037" x2="83.44" y2="1037" gradientTransform="matrix(1 0 0 1 0 -996)">
			<stop  offset="0" style="stop-color:#FF9068"/>
			<stop  offset="1" style="stop-color:#FD746C"/>
		</linearGradient>
		<polygon id="XMLID_238_" class="st19" points="78.2,41.9 82.8,41.9 82.8,40 78.2,40 78.2,38.1 83.4,38.1 83.4,36.2 76.1,36.2 
			76.1,45.8 83.4,45.8 83.4,43.9 78.2,43.9 		"/>
		
			<linearGradient id="XMLID_19_" gradientUnits="userSpaceOnUse" x1="84.61" y1="1037" x2="93.86" y2="1037" gradientTransform="matrix(1 0 0 1 0 -996)">
			<stop  offset="0" style="stop-color:#FF9068"/>
			<stop  offset="1" style="stop-color:#FD746C"/>
		</linearGradient>
		<polygon id="XMLID_239_" class="st20" points="93.7,36.2 91.3,36.2 89.3,39.3 87.2,36.2 84.8,36.2 88,40.9 84.6,45.8 87,45.8 
			89.2,42.5 91.4,45.8 93.9,45.8 90.5,40.9 		"/>
		
			<linearGradient id="XMLID_21_" gradientUnits="userSpaceOnUse" x1="95.45" y1="1037.05" x2="103.65" y2="1037.05" gradientTransform="matrix(1 0 0 1 0 -996)">
			<stop  offset="0" style="stop-color:#FF9068"/>
			<stop  offset="1" style="stop-color:#FD746C"/>
		</linearGradient>
		<path id="XMLID_242_" class="st21" d="M101.8,40.8c0.2-0.1,0.3-0.2,0.5-0.3c0.1-0.1,0.3-0.3,0.4-0.5s0.2-0.4,0.3-0.6
			c0.1-0.2,0.1-0.5,0.1-0.7l0,0c0-0.7-0.2-1.2-0.7-1.7c-0.6-0.6-1.4-0.8-2.5-0.8h-4.5v9.7h4.6c0.5,0,1,0,1.5-0.2
			c0.4-0.1,0.8-0.3,1.1-0.5c0.3-0.2,0.6-0.5,0.7-0.8c0.2-0.3,0.3-0.7,0.3-1.2l0,0c0-0.6-0.2-1.1-0.5-1.5S102.4,41,101.8,40.8z
			 M97.5,38h2.1c0.5,0,0.8,0.1,1,0.3s0.4,0.4,0.4,0.7l0,0c0,0.4-0.1,0.6-0.4,0.8S100,40,99.5,40h-2V38z M101.5,42.9
			c0,0.4-0.1,0.6-0.4,0.8S100.5,44,100,44h-2.5v-2.1h2.5c0.6,0,1,0.1,1.2,0.3C101.4,42.3,101.5,42.6,101.5,42.9L101.5,42.9z"/>
		
			<linearGradient id="XMLID_24_" gradientUnits="userSpaceOnUse" x1="104.99" y1="1037" x2="115.27" y2="1037" gradientTransform="matrix(1 0 0 1 0 -996)">
			<stop  offset="0" style="stop-color:#FF9068"/>
			<stop  offset="1" style="stop-color:#FD746C"/>
		</linearGradient>
		<path id="XMLID_246_" class="st22" d="M113.8,37.5c-0.5-0.4-1-0.8-1.6-1.1s-1.3-0.4-2.1-0.4c-0.7,0-1.4,0.1-2.1,0.4
			c-0.6,0.3-1.2,0.6-1.6,1.1c-0.5,0.5-0.8,1-1.1,1.6c-0.3,0.6-0.4,1.3-0.4,1.9l0,0c0,0.7,0.1,1.3,0.4,1.9c0.3,0.6,0.6,1.1,1.1,1.6
			s1,0.8,1.6,1.1s1.3,0.4,2.1,0.4c0.7,0,1.4-0.1,2.1-0.4c0.6-0.3,1.2-0.6,1.6-1.1c0.5-0.5,0.8-1,1.1-1.6c0.3-0.6,0.4-1.3,0.4-1.9
			l0,0c0-0.7-0.1-1.3-0.4-1.9C114.6,38.4,114.3,37.9,113.8,37.5z M113,41c0,0.4-0.1,0.8-0.2,1.2s-0.3,0.7-0.6,1
			c-0.3,0.3-0.5,0.5-0.9,0.7s-0.8,0.2-1.2,0.2s-0.8-0.1-1.2-0.2c-0.4-0.2-0.7-0.4-0.9-0.7c-0.3-0.3-0.5-0.6-0.6-1s-0.2-0.8-0.2-1.2
			l0,0c0-0.4,0.1-0.8,0.2-1.2s0.3-0.7,0.6-1c0.3-0.3,0.6-0.5,0.9-0.6c0.4-0.2,0.8-0.2,1.2-0.2c0.4,0,0.8,0.1,1.2,0.2
			c0.4,0.2,0.7,0.4,0.9,0.7c0.3,0.3,0.5,0.6,0.6,1C113,40.2,113,40.6,113,41L113,41z"/>
		
			<linearGradient id="XMLID_25_" gradientUnits="userSpaceOnUse" x1="116.43" y1="1037" x2="125.68" y2="1037" gradientTransform="matrix(1 0 0 1 0 -996)">
			<stop  offset="0" style="stop-color:#FF9068"/>
			<stop  offset="1" style="stop-color:#FD746C"/>
		</linearGradient>
		<polygon id="XMLID_247_" class="st23" points="125.5,36.2 123.1,36.2 121.1,39.3 119,36.2 116.6,36.2 119.8,40.9 116.4,45.8 
			118.8,45.8 121,42.5 123.2,45.8 125.7,45.8 122.3,40.9 		"/>
	</g>
</g>
</svg>
