<svg id="Layer_1" data-name="Layer 1" xmlns="http://www.w3.org/2000/svg" width="200.9425" height="200.9425" viewBox="0 0 200.9425 200.9425"><title>circle_white</title><g id="Layer_5" data-name="Layer 5"><g id="Layer_7" data-name="Layer 7"><g id="Layer_6_copy" data-name="Layer 6 copy"><g id="_Group_" data-name=" Group "><path d="M453.2442,14a100.4713,100.4713,0,1,0,100.471,100.4714v0A100.4713,100.4713,0,0,0,453.2442,14Zm80.4629,141.3406A90.22,90.22,0,1,1,495.65,33.5584h0c44.0372,22.8341,60.8912,77.745,38.057,121.7822Z" transform="translate(-352.7728 -14)" fill="#fff"/><path d="M461.9428,98.7987a16.8733,16.8733,0,0,0-22.8073,7.0167l-.027.0512a16.5372,16.5372,0,1,0,22.8343-7.0679Z" transform="translate(-352.7728 -14)" fill="#fff"/><path d="M442.9144,134.1372a3.2847,3.2847,0,0,0-2.7184,5.9806,3.4244,3.4244,0,0,0,4.3493-1.6309A3.643,3.643,0,0,0,442.9144,134.1372Z" transform="translate(-352.7728 -14)" fill="#fff"/><path d="M451.0694,84.12a3.2844,3.2844,0,0,0-2.7184,5.98h0A3.424,3.424,0,0,0,452.7,88.4691a2.7366,2.7366,0,0,0-1.6309-4.3491Z" transform="translate(-352.7728 -14)" fill="#fff"/><path d="M473.9036,129.788a3.2846,3.2846,0,1,0,1.6308,4.3494v0a2.7367,2.7367,0,0,0-1.6309-4.3492Z" transform="translate(-352.7728 -14)" fill="#fff"/><path d="M428.7791,105.8666a3.2846,3.2846,0,0,0-2.7378,5.9715l.0194.0088a3.4241,3.4241,0,0,0,4.3493-1.6309A3.643,3.643,0,0,0,428.7791,105.8666Z" transform="translate(-352.7728 -14)" fill="#fff"/><path d="M479.3411,98.7987a3.2847,3.2847,0,1,0,1.631,4.35,2.7372,2.7372,0,0,0-1.631-4.35Z" transform="translate(-352.7728 -14)" fill="#fff"/><path d="M490.214,43.3447c-8.6986-4.8931-19.0284-3.2622-26.64,2.1744a22.6829,22.6829,0,0,0-7.0677,8.699c-.5435,1.087-1.0873,1.631-1.0873,2.7182A24.98,24.98,0,0,0,499.4569,79.77c.5436-.5435,1.0871-1.6309,1.631-2.1746a24.7481,24.7481,0,0,0,2.7183-10.8729A24.3631,24.3631,0,0,0,490.214,43.3447Zm4.8932,30.9888c-.544.544-1.0875,1.6313-1.6313,2.1749a75.824,75.824,0,0,0-14.6792-11.4169,40.6776,40.6776,0,0,0-17.3975-5.4367c.5437-1.0875.5437-1.6313,1.0874-2.7185a18.7438,18.7438,0,0,1,11.417-9.2423A75.429,75.429,0,0,1,495.65,59.1109a16.7324,16.7324,0,0,1-.5435,15.2226Z" transform="translate(-352.7728 -14)" fill="#fff"/><path d="M521.7465,104.2354a11.898,11.898,0,0,0-2.7183-1.631A24.9291,24.9291,0,0,0,495.65,146.6422a24.6191,24.6191,0,0,0,16.31,2.1746,26.1668,26.1668,0,0,0,17.3975-13.048C535.8819,124.8956,532.0762,111.3034,521.7465,104.2354Zm-4.8929,36.425A20.2534,20.2534,0,0,1,500,141.7479c.5438-1.0875,1.0873-1.631,1.6309-2.7184a51.9011,51.9011,0,0,0,5.4367-32.0766,17.2168,17.2168,0,0,1,8.699,2.1747,15.9861,15.9861,0,0,1,6.5241,5.4368,64.248,64.248,0,0,1-5.4369,26.0969Z" transform="translate(-352.7728 -14)" fill="#fff"/><path d="M425.5168,53.1307c-1.0871-.5439-1.6309-1.0875-2.7183-1.0875A25.19,25.19,0,0,0,391.81,64.0041a23.65,23.65,0,0,0-.5438,21.7468,24.3079,24.3079,0,0,0,11.4172,11.9607,24.9692,24.9692,0,0,0,33.7074-10.33A25.7992,25.7992,0,0,0,425.5168,53.1307Zm-19.572,35.3384c-.5435,1.0875-1.0873,1.631-1.631,2.7184a19.86,19.86,0,0,1-8.6988-14.1356A79.1656,79.1656,0,0,1,414.1,57.48a15.34,15.34,0,0,1,8.1552,2.1748,17.2819,17.2819,0,0,1,6.5241,5.98A48.926,48.926,0,0,0,405.9448,88.4691Z" transform="translate(-352.7728 -14)" fill="#fff"/><path d="M414.1,117.2837a24.67,24.67,0,0,0-33.4629,9.87q-.1245.2289-.2443.46a24.9685,24.9685,0,0,0,10.33,33.7071,24.196,24.196,0,0,0,16.31,2.175A23.6222,23.6222,0,0,0,424.43,150.4474a23.9032,23.9032,0,0,0-9.1474-32.543Q414.7,117.5777,414.1,117.2837Zm-13.0482,40.2314a74.568,74.568,0,0,1-14.1353-27.7272,18.4131,18.4131,0,0,1,13.0482-8.6987,53.2644,53.2644,0,0,0,15.7662,30.9893,18.4563,18.4563,0,0,1-14.6791,5.4368Z" transform="translate(-352.7728 -14)" fill="#fff"/><path d="M473.36,148.2728a24.7038,24.7038,0,0,0-33.395,10.263q-.16.3027-.3125.61a23.6786,23.6786,0,0,0-.544,21.7469,24.3089,24.3089,0,0,0,11.4173,11.9607,24.97,24.97,0,0,0,33.7077-10.33,24.0546,24.0546,0,0,0,2.7182-8.155C488.0388,163.4956,483.146,153.1656,473.36,148.2728Zm5.4367,29.9688a64.1,64.1,0,0,1-25.0089,4.8931h-5.98a19.1466,19.1466,0,0,1-3.8064-15.2227,56.5564,56.5564,0,0,0,34.2512-4.8932C480.9713,167.3682,480.9713,172.8048,478.7967,178.2416Z" transform="translate(-352.7728 -14)" fill="#fff"/></g></g></g></g></svg>